<svg width="152" height="83" viewBox="0 0 152 83" xmlns="http://www.w3.org/2000/svg" xmlns:xlink="http://www.w3.org/1999/xlink"><title>Group 3</title><defs><path d="M132.09 82.523H168V34.219H91.577C86.105 14.483 68.058 0 46.639 0 20.88 0 0 20.945 0 46.782c0 14.313 6.408 27.125 16.504 35.706H132.09v.035z" id="c"/><path d="M165.553 20.93c3.106 3.152 6.761 13.786-6.75 13.786H.704A.706.706 0 0 1 0 34.023V5.253A5.248 5.248 0 0 1 5.254.003S86.43.032 124.093 0c17.962-.016 38.353 17.779 41.46 20.93z" id="e"/><linearGradient x1="159.432%" y1="28.981%" x2="26.068%" y2="28.981%" id="f"><stop stop-color="#1ECDC0" offset="0%"/><stop stop-color="#01C3A7" offset="100%"/></linearGradient><rect id="h" width="23.189" height="9.026" rx="4.513"/><rect id="j" width="23.189" height="9.026" rx="4.513"/><rect id="l" width="23.189" height="9.026" rx="4.513"/><rect id="a" x=".212" y=".007" width="8.034" height="17.358" rx="2.975"/><mask id="n" x="-1" y="-1" width="10.034" height="19.358"><path fill="#fff" d="M-.788-.993H9.246v19.358H-.788z"/><use xlink:href="#a"/></mask><path d="M165.553 20.93c3.106 3.152 6.761 13.786-6.75 13.786H.704A.706.706 0 0 1 0 34.023V5.253A5.248 5.248 0 0 1 5.254.003S86.43.032 124.093 0c17.962-.016 38.353 17.779 41.46 20.93z" id="b"/><mask id="o" x="0" y="0" width="168.466" height="34.716" fill="#fff"><use xlink:href="#b"/></mask></defs><g fill="none" fill-rule="evenodd"><mask id="d" fill="#fff"><use xlink:href="#c"/></mask><path d="M151 82H-24" stroke="#808892" stroke-linecap="round" mask="url(#d)"/><path d="M70.13 93.564c13.846-8.705 23.148-24.869 23.148-43.371C93.278 22.473 72.397 0 46.638 0 20.882 0 0 22.472 0 50.193c0 18.502 9.302 34.666 23.148 43.37H70.13z" fill-opacity=".193" fill="#20406B" opacity=".4" mask="url(#d)"/><ellipse fill="#21314D" opacity=".233" mask="url(#d)" cx="18.555" cy="47.788" rx="47.642" ry="47.788"/><g mask="url(#d)"><g transform="translate(-36.02 45.267)"><path d="M143.2 36.721c2.232 0 4.041-1.824 4.041-4.074s-1.81-4.073-4.041-4.073c-2.232 0-4.041 1.823-4.041 4.073 0 2.25 1.809 4.074 4.04 4.074zm-10.542 0c2.231 0 4.04-1.824 4.04-4.074s-1.809-4.073-4.04-4.073c-2.232 0-4.042 1.823-4.042 4.073 0 2.25 1.81 4.074 4.042 4.074zm-10.543 0c2.232 0 4.041-1.824 4.041-4.074s-1.809-4.073-4.04-4.073c-2.233 0-4.042 1.823-4.042 4.073 0 2.25 1.81 4.074 4.041 4.074zm-91.367 0c2.232 0 4.042-1.824 4.042-4.074s-1.81-4.073-4.042-4.073c-2.231 0-4.04 1.823-4.04 4.073 0 2.25 1.809 4.074 4.04 4.074zm-10.542 0c2.232 0 4.041-1.824 4.041-4.074s-1.809-4.073-4.04-4.073c-2.233 0-4.042 1.823-4.042 4.073 0 2.25 1.81 4.074 4.041 4.074zm-10.542 0c2.232 0 4.041-1.824 4.041-4.074s-1.81-4.073-4.041-4.073c-2.232 0-4.041 1.823-4.041 4.073 0 2.25 1.809 4.074 4.04 4.074z" fill="#21314D"/><mask id="g" fill="#fff"><use xlink:href="#e"/></mask><use fill="#EEFDFB" xlink:href="#e"/><path fill="url(#f)" mask="url(#g)" d="M-3.866 24.974h159.902l16.155 9.558v5.852H-3.866z"/><path fill-opacity=".25" fill="#21314D" mask="url(#g)" d="M-3.866 30.699h176.057v8.679H-3.866z"/><g mask="url(#g)"><g transform="translate(67.338 10.037)"><mask id="i" fill="#fff"><use xlink:href="#h"/></mask><use fill="#21314D" xlink:href="#h"/><path d="M-1.268.487l8.826 9.114M11.219-.145l8.825 9.114M11.31-5.376l8.826 9.114" stroke="#D1E2FF" stroke-width="1.925" stroke-linecap="round" opacity=".2" mask="url(#i)"/></g></g><g mask="url(#g)"><g transform="translate(95.338 10.037)"><mask id="k" fill="#fff"><use xlink:href="#j"/></mask><use fill="#21314D" xlink:href="#j"/><path d="M-1.268.487l8.826 9.114M11.219-.145l8.825 9.114M11.31-5.376l8.826 9.114" stroke="#D1E2FF" stroke-width="1.925" stroke-linecap="round" opacity=".2" mask="url(#k)"/></g></g><g mask="url(#g)"><g transform="translate(39.338 10.037)"><mask id="m" fill="#fff"><use xlink:href="#l"/></mask><use fill="#21314D" xlink:href="#l"/><path d="M-1.268.487l8.826 9.114M11.219-.145l8.825 9.114M11.31-5.376l8.826 9.114" stroke="#D1E2FF" stroke-width="1.925" stroke-linecap="round" opacity=".2" mask="url(#m)"/></g></g><path d="M26.328 28.673h66.45M97.787 28.673h8.168" stroke="#0B8E7A" stroke-linecap="round" mask="url(#g)"/><path d="M26.328 5.533h94.286" stroke="#A4BFBC" stroke-linecap="round" mask="url(#g)"/><path d="M-3.672 3.533h94.286" stroke="#FFF" stroke-linecap="round" mask="url(#g)"/><path d="M141.32 21.127h8.64" stroke="#A4BFBC" stroke-linecap="round" mask="url(#g)"/><g mask="url(#g)"><g transform="translate(127.196 9.558)"><use stroke="#21314D" mask="url(#n)" stroke-width="2" xlink:href="#a"/><rect fill="#21314D" x="1.969" y="2.133" width="4.518" height="5.137" rx=".875"/></g></g><path d="M144.754 10.652c-.373-.307-.278-.556.197-.556h26.368c.482 0 .872.396.872.88v6.92c0 .485-.4.88-.871.88h-15.828c-.481 0-1.175-.251-1.547-.557l-9.191-7.567z" fill="#21314D" mask="url(#g)"/><path d="M-14.161-5.03h70.209s-.223 34.143 35.232 47.285H-14.161V-5.03z" fill="#000" opacity=".087" mask="url(#g)" transform="matrix(1 0 0 -1 0 37.224)"/><use stroke="#21314D" mask="url(#o)" stroke-width="3.5" xlink:href="#b"/></g></g></g></svg>