<?xml version="1.0" encoding="utf-8"?>
<!-- Generator: Adobe Illustrator 21.1.0, SVG Export Plug-In . SVG Version: 6.00 Build 0)  -->
<svg version="1.1" id="Calque_1" xmlns="http://www.w3.org/2000/svg" xmlns:xlink="http://www.w3.org/1999/xlink" x="0px" y="0px"
	 viewBox="0 0 432 432" style="enable-background:new 0 0 432 432;" xml:space="preserve">
<style type="text/css">
	.st0{fill:#EE7481;}
	.st1{fill:#E84158;}
	.st2{fill:#A08472;}
	.st3{fill:#766257;}
	.st4{fill:#6B340F;}
	.st5{fill:#E5D0B1;}
	.st6{fill:#0E0A0D;}
	.st7{fill:#EDEDED;}
	.st8{fill:#DC1915;}
	.st9{fill:#FFFFFF;}
	.st10{fill:none;}
	.st11{fill:#E4E8E7;}
	.st12{fill:#1E1E1C;}
	.st13{fill:#C21F18;}
	.st14{fill:#DADADA;}
	.st15{fill:#0A0A0A;}
	.st16{fill:#3AAA35;}
	.st17{fill:#BE1622;}
	.st18{fill:#C1292E;}
	.st19{fill:#706F6F;}
	.st20{fill:#A48A7B;}
	.st21{fill:#6E9CB3;}
	.st22{fill:#C17F11;}
	.st23{fill:#CF9946;}
	.st24{fill:#257BBC;}
	.st25{fill:#0F6FAB;}
	.st26{fill:#BB1546;}
	.st27{fill:#CE9445;}
	.st28{fill:#C07912;}
	.st29{fill:#EA601C;}
	.st30{fill:#020203;}
	.st31{fill:#EDF2F4;}
	.st32{fill:#432918;}
	.st33{fill:#0E0E0E;}
	.st34{fill:#2E3131;}
	.st35{fill:#F2F2F2;}
	.st36{fill:#C1E4F1;}
	.st37{fill:#E4CAAC;}
	.st38{fill:#F5EC70;}
	.st39{fill:#CC132D;}
	.st40{fill:#9F1923;}
	.st41{fill:#E6213A;}
	.st42{fill:#E8A6B7;}
	.st43{fill:#E5C09F;}
	.st44{fill:#CDE7E3;}
	.st45{fill:#FDFDFD;}
	.st46{fill:#085A34;}
	.st47{fill:#E51741;}
	.st48{fill:#F7EB5F;}
	.st49{fill:#E8AC48;}
	.st50{fill:#F7DEBA;}
	.st51{fill:#B5804E;}
	.st52{fill:#A8734D;}
</style>
<g>
	<g>
		<path class="st22" d="M193.4,279.4c0-2.5-0.2-5.1-0.6-7.8c-0.4-3.1-1.1-6.4-1.9-9.6c-0.7-2.6-1.4-5.2-2.3-7.8c-1-3-2.1-6-3.2-8.9
			c-1-2.6-2.2-5.2-3.3-7.8c-1.3-3-2.7-5.9-4.1-8.7c-1.4-2.7-2.7-5.3-4.1-7.8c-6.2-11.4-11.6-19.2-11.6-19.2s-5.2,7.8-11.4,19.2
			c-1.3,2.4-2.7,5-4,7.8c-1.4,2.8-2.7,5.7-4.1,8.7c-1.1,2.5-2.2,5.1-3.2,7.8c-1.1,2.9-2.2,5.9-3.2,8.9c-0.8,2.6-1.6,5.2-2.2,7.8
			c-0.8,3.2-1.4,6.4-1.9,9.6c-0.4,2.6-0.6,5.2-0.6,7.8c0,0.2,0,0.4,0,0.6c0,2.1,0.1,4.2,0.3,6.3c0.3,2.6,0.7,5.2,1.2,7.8
			c0.6,2.7,1.3,5.5,2.1,8.2c0.8,2.6,1.6,5.2,2.6,7.8c0.8,2.2,1.6,4.4,2.5,6.5c1.1,2.7,2.2,5.3,3.4,7.8c1,2.2,2.1,4.4,3.2,6.5
			c1.4,2.7,2.8,5.4,4.1,7.8c6,10.9,11,18.1,11,18.1s5.2-7.3,11.3-18.1c1.4-2.4,2.8-5,4.2-7.8c1.1-2.1,2.2-4.3,3.2-6.5
			c1.2-2.5,2.4-5.1,3.5-7.8c0.9-2.1,1.8-4.3,2.6-6.5c1-2.6,1.8-5.2,2.6-7.8c0.8-2.8,1.5-5.5,2.1-8.2c0.6-2.6,1-5.2,1.3-7.7
			c0.2-2.2,0.4-4.3,0.4-6.4C193.4,279.8,193.4,279.6,193.4,279.4z"/>
		<g>
			<path class="st9" d="M173.9,221.1h-22.9c-1.3,2.4-2.7,5-4,7.8h31C176.6,226.1,175.2,223.5,173.9,221.1z"/>
			<path class="st9" d="M182.1,237.5h-39.2c-1.1,2.5-2.2,5.1-3.2,7.8h45.7C184.3,242.6,183.2,240,182.1,237.5z"/>
			<path class="st9" d="M136.5,254.2c-0.8,2.6-1.6,5.2-2.2,7.8h56.6c-0.7-2.6-1.4-5.2-2.3-7.8H136.5z"/>
			<path class="st9" d="M131.8,279.4h61.6c0-2.5-0.2-5.1-0.6-7.8h-60.4C132,274.2,131.8,276.9,131.8,279.4z"/>
			<path class="st9" d="M132.1,286.4c0.3,2.6,0.7,5.2,1.2,7.8h58.4c0.6-2.6,1-5.2,1.3-7.7c-0.3-0.1-0.5-0.1-0.8-0.1H132.1z"/>
			<path class="st9" d="M138,310.2h49c1-2.6,1.8-5.2,2.6-7.8h-54.2C136.2,305,137.1,307.6,138,310.2z"/>
			<path class="st9" d="M143.9,324.5h37c1.2-2.5,2.4-5.1,3.5-7.8h-43.9C141.6,319.3,142.8,321.9,143.9,324.5z"/>
			<path class="st9" d="M151.2,338.8h22.3c1.4-2.4,2.8-5,4.2-7.8h-30.6C148.5,333.7,149.9,336.3,151.2,338.8z"/>
		</g>
		<g>
			<g>
				<path class="st23" d="M152.6,206.1c0.2,2.2-0.7,3.7-0.5,5.9c1.4-1.5,3.7-2.3,5.1-3.8c0.2,1.3,0.5,2.6,0.7,3.8
					c0.6-0.9,1.2-1.8,1.8-2.7c0.1-0.1,0.2-0.3,0.4-0.3c0.1,0,0.3,0.1,0.4,0.2c0.8,1,1.6,1.9,2.5,2.9c0.8-1.1,1.7-2.3,2.5-3.4
					c0.1-0.1,0.2-0.3,0.4-0.3c0.4-0.1,0.7,0.3,0.9,0.7c0.6,1,1.7,1.8,2.8,1.9c-0.2-0.9-0.4-1.9-0.4-2.9c1,1.1,1.9,2.3,2.9,3.4
					c0.4-4.1,1.6-10.8-0.4-11.6c-6.9-2.8-18.1-0.3-18.5,0.1c-1,1.2,0.1,4-0.4,6.2"/>
			</g>
			<g>
				<path class="st22" d="M171,201.1c-0.5-0.3-1.1-0.3-1.5-0.1s-0.8,0.7-0.9,1.3c0,0.3,0,0.6,0.1,1c0.2,0.9,0.3,1.8,0.6,2.6
					s0.9,1.6,1.7,2c0.1,0,0.2,0.1,0.3,0.1c0.1,0,0.2-0.1,0.2-0.1c0.3-0.3,0.3-0.8,0.3-1.3c0-1.1,0-2.1,0-3.2
					C171.8,202.6,171.7,201.4,171,201.1"/>
			</g>
		</g>
		<rect x="162" y="1.7" class="st22" width="0.6" height="196.9"/>
	</g>
	<g>
		<g>
			<path class="st24" d="M303.2,283.8c0,32.9-31.2,76.9-31.2,76.9s-30.4-44-30.4-76.9s31-80.7,31-80.7S303.2,250.9,303.2,283.8z"/>
			<path class="st25" d="M288.1,281.7c0,32.9-15.9,76.9-15.9,76.9s-15.6-44-15.6-76.9s15.6-78.2,15.6-78.2S288.1,248.8,288.1,281.7z
				"/>
		</g>
		<g>
			<g>
				<path class="st23" d="M262.7,209.1c0.2,2.2-0.7,3.7-0.5,5.9c1.4-1.5,3.7-2.3,5.1-3.8c0.2,1.3,0.5,2.6,0.7,3.8
					c0.6-0.9,1.2-1.8,1.8-2.7c0.1-0.1,0.2-0.3,0.4-0.3c0.1,0,0.3,0.1,0.4,0.2c0.8,1,1.6,1.9,2.5,2.9c0.8-1.1,1.7-2.3,2.5-3.4
					c0.1-0.1,0.2-0.3,0.4-0.3c0.4-0.1,0.7,0.3,0.9,0.7c0.6,1,1.7,1.8,2.8,1.9c-0.2-0.9-0.4-1.9-0.4-2.9c1,1.1,1.9,2.3,2.9,3.4
					c0.4-4.1,1.6-10.8-0.4-11.6c-6.9-2.8-18.1-0.3-18.5,0.1c-1,1.2,0.1,4-0.4,6.2"/>
			</g>
			<g>
				<path class="st22" d="M281,204.1c-0.5-0.3-1.1-0.3-1.5-0.1c-0.5,0.2-0.8,0.7-0.9,1.3c0,0.3,0,0.6,0.1,1c0.2,0.9,0.3,1.8,0.6,2.6
					c0.3,0.8,0.9,1.6,1.7,2c0.1,0,0.2,0.1,0.3,0.1c0.1,0,0.2-0.1,0.2-0.1c0.3-0.3,0.3-0.8,0.3-1.3c0-1.1,0-2.1,0-3.2
					C281.8,205.6,281.7,204.4,281,204.1"/>
			</g>
		</g>
		<rect x="272.1" y="1.7" class="st22" width="0.6" height="200.2"/>
	</g>
	<g>
		<path class="st21" d="M256.3,134l-6,5.8l1.6,9.2l-8.3-4.3l-8.3,4.3l1.6-9.2l-6.7-6.5l9.2-1.3l4.1-8.4l4.1,8.4l7.9,1.2
			c-6.5-10-17.2-17.2-29.6-19.4c0-0.1,0-0.1,0-0.2v-4.6c0-4.1-3.4-7.5-7.5-7.5h-2.8c-4.1,0-7.5,3.4-7.5,7.5v4.6c0,0.2,0,0.4,0,0.6
			c-7.1,1.6-13.5,4.8-18.9,9.3l6.1,3l7.1-3.9l-1.2,8l5.9,5.5l-8,1.3l-3.4,7.3l-3.7-7.2l-8-1l5.7-5.8l-1.3-6.6
			c-9,7.9-14.7,19.4-14.7,32.2c0,20.5,14.5,37.6,34,42.2l-0.4-7.1l-7.9-4.8l8.6-3.4l2.1-9l5.9,7.2l9.2-0.8l-5,7.8l3.6,8.5l-9-2.3
			l-5,4.4c2.7,0.5,5.4,0.8,8.2,0.8c24.5,0,44.3-19.4,44.3-43.4C262.8,148.2,260.4,140.5,256.3,134z M241.4,155.6l1-2l1,2l2.2,0.3
			l-1.6,1.6l0.4,2.2l-2-1.1l-2,1.1l0.4-2.2l-1.6-1.6L241.4,155.6z M228.2,117.5l1-2l1,2l2.2,0.3l-1.6,1.6l0.4,2.2l-2-1.1l-2,1.1
			l0.4-2.2l-1.6-1.6L228.2,117.5z M218.9,121l1.7,3.5l3.9,0.6l-2.8,2.7l0.7,3.9l-3.5-1.8l-3.5,1.8l0.7-3.9l-2.8-2.7l3.9-0.6
			L218.9,121z M212.1,114.5l1-2l1,2l2.2,0.3l-1.6,1.6l0.4,2.2l-2-1.1l-2,1.1l0.4-2.2l-1.6-1.6L212.1,114.5z M178.2,148.2l3.9-0.6
			l1.7-3.5l1.7,3.5l3.9,0.6l-2.8,2.7l0.7,3.9l-3.5-1.8l-3.5,1.8l0.7-3.9L178.2,148.2z M194.7,184.8l-2-1.1l-2,1.1l0.4-2.2l-1.6-1.6
			l2.2-0.3l1-2l1,2l2.2,0.3l-1.6,1.6L194.7,184.8z M196.3,172.5l-5.1,5.5l-1.3-7.4l-6.8-3.1l6.6-3.5l0.9-7.5l5.4,5.2l7.4-1.5
			L200,167l3.7,6.5L196.3,172.5z M221.6,175.9l-2-1.1l-2,1.1l0.4-2.2l-1.6-1.6l2.2-0.3l1-2l1,2l2.2,0.3l-1.6,1.6L221.6,175.9z
			 M223.2,160.7l-6.6-3.5l-6.6,3.5l1.3-7.3l-5.3-5.2l7.4-1.1l3.3-6.7l3.3,6.7l7.4,1.1l-5.3,5.2L223.2,160.7z M234.8,190.5l-3.5-1.8
			l-3.5,1.8l0.7-3.9l-2.8-2.7l3.9-0.6l1.7-3.5l1.7,3.5l3.9,0.6l-2.8,2.7L234.8,190.5z M247.1,176.8l-3.2,6.8l-3.5-6.7L233,176
			l5.3-5.4l-1.4-7.4l6.7,3.4l6.6-3.6l-1.1,7.4l5.5,5.1L247.1,176.8z M257.8,166.6l-2,1.1l0.4-2.2l-1.6-1.6l2.2-0.3l1-2l1,2l2.2,0.3
			l-1.6,1.6l0.4,2.2L257.8,166.6z"/>
		<g>
			<g>
				<path class="st23" d="M207.9,103.7c0.2,2.2-0.7,3.7-0.5,5.9c1.4-1.5,3.7-2.3,5.1-3.8c0.2,1.3,0.5,2.6,0.7,3.8
					c0.6-0.9,1.2-1.8,1.8-2.7c0.1-0.1,0.2-0.3,0.4-0.3c0.1,0,0.3,0.1,0.4,0.2c0.8,1,1.6,1.9,2.5,2.9c0.8-1.1,1.7-2.3,2.5-3.4
					c0.1-0.1,0.2-0.3,0.4-0.3c0.4-0.1,0.7,0.3,0.9,0.7c0.6,1,1.7,1.8,2.8,1.9c-0.2-0.9-0.4-1.9-0.4-2.9c1,1.1,1.9,2.3,2.9,3.4
					c0.4-4.1,1.6-10.8-0.4-11.6c-6.9-2.8-18.1-0.3-18.5,0.1c-1,1.2-0.9,4.6-0.4,6.2"/>
			</g>
			<g>
				<path class="st22" d="M226.2,98.7c-0.5-0.3-1.1-0.3-1.5-0.1c-0.5,0.2-0.8,0.7-0.9,1.3c0,0.3,0,0.6,0.1,1
					c0.2,0.9,0.3,1.8,0.6,2.6c0.3,0.8,0.9,1.6,1.7,2c0.1,0,0.2,0.1,0.3,0.1c0.1,0,0.2-0.1,0.2-0.1c0.3-0.3,0.3-0.8,0.3-1.3
					c0-1.1,0-2.1,0-3.2C227,100.2,226.9,98.9,226.2,98.7"/>
			</g>
		</g>
		<rect x="217.3" y="1.7" class="st22" width="0.6" height="95.1"/>
	</g>
	<g>
		<g>
			<path class="st19" d="M335.9,114.4c0-0.1,0-0.1,0-0.2v-4.6c0-4.1-3.4-7.5-7.5-7.5h-2.8c-4.1,0-7.5,3.4-7.5,7.5v4.6
				c0,0.2,0,0.4,0,0.6c-19.7,4.4-34.4,21.7-34.4,42.3c0,24,19.8,43.4,44.3,43.4c24.5,0,44.3-19.4,44.3-43.4
				C372.4,135.7,356.7,118,335.9,114.4z"/>
			<g>
				<path class="st9" d="M328.3,133.8c1.7,0,1.7-2.6,0-2.6C326.6,131.2,326.6,133.8,328.3,133.8L328.3,133.8z"/>
			</g>
			<g>
				<path class="st9" d="M352.6,137.7c1.7,0,1.7-2.6,0-2.6C350.9,135.1,350.9,137.7,352.6,137.7L352.6,137.7z"/>
			</g>
			<g>
				<path class="st9" d="M342.2,164.1c1.7,0,1.7-2.6,0-2.6C340.5,161.5,340.5,164.1,342.2,164.1L342.2,164.1z"/>
			</g>
			<g>
				<path class="st9" d="M315.3,152.4c1.7,0,1.7-2.6,0-2.6C313.6,149.8,313.6,152.4,315.3,152.4L315.3,152.4z"/>
			</g>
			<g>
				<path class="st9" d="M319.6,173.6c1.7,0,1.7-2.6,0-2.6C318,171,318,173.6,319.6,173.6L319.6,173.6z"/>
			</g>
			<g>
				<path class="st9" d="M338.7,185.3c1.7,0,1.7-2.6,0-2.6C337,182.7,337,185.3,338.7,185.3L338.7,185.3z"/>
			</g>
			<g>
				<path class="st9" d="M364.2,164.5c1.7,0,1.7-2.6,0-2.6C362.6,161.9,362.6,164.5,364.2,164.5L364.2,164.5z"/>
			</g>
			<g>
				<path class="st9" d="M333.9,147.6c1.7,0,1.7-2.6,0-2.6C332.3,145,332.3,147.6,333.9,147.6L333.9,147.6z"/>
			</g>
			<g>
				<path class="st9" d="M311.4,133.3c1.7,0,1.7-2.6,0-2.6C309.7,130.7,309.7,133.3,311.4,133.3L311.4,133.3z"/>
			</g>
			<g>
				<path class="st9" d="M294.1,160.2c1.7,0,1.7-2.6,0-2.6C292.4,157.6,292.4,160.2,294.1,160.2L294.1,160.2z"/>
			</g>
			<g>
				<path class="st9" d="M302.3,176.2c1.7,0,1.7-2.6,0-2.6C300.6,173.6,300.6,176.2,302.3,176.2L302.3,176.2z"/>
			</g>
			<g>
				<path class="st9" d="M321.8,193.1c1.7,0,1.7-2.6,0-2.6C320.1,190.5,320.1,193.1,321.8,193.1L321.8,193.1z"/>
			</g>
			<g>
				<path class="st9" d="M360.8,179.2c1.7,0,1.7-2.6,0-2.6C359.1,176.6,359.1,179.2,360.8,179.2L360.8,179.2z"/>
			</g>
			<g>
				<path class="st9" d="M348.7,126c1.7,0,1.7-2.6,0-2.6C347,123.4,347,126,348.7,126L348.7,126z"/>
			</g>
			<g>
				<path class="st9" d="M296.7,142.4c1.7,0,1.7-2.6,0-2.6C295,139.8,295,142.4,296.7,142.4L296.7,142.4z"/>
			</g>
			<g>
				<path class="st9" d="M327.4,163.6c2.8,0,2.8-4.3,0-4.3C324.7,159.3,324.6,163.6,327.4,163.6L327.4,163.6z"/>
			</g>
			<g>
				<path class="st9" d="M354.3,157.1c2.8,0,2.8-4.3,0-4.3C351.5,152.8,351.5,157.1,354.3,157.1L354.3,157.1z"/>
			</g>
			<g>
				<path class="st9" d="M349.5,174.5c2.8,0,2.8-4.3,0-4.3C346.7,170.1,346.7,174.5,349.5,174.5L349.5,174.5z"/>
			</g>
			<g>
				<path class="st9" d="M306.2,167.5c2.8,0,2.8-4.3,0-4.3C303.4,163.2,303.4,167.5,306.2,167.5L306.2,167.5z"/>
			</g>
			<g>
				<path class="st9" d="M301.9,150.2c2.8,0,2.8-4.3,0-4.3C299.1,145.9,299.1,150.2,301.9,150.2L301.9,150.2z"/>
			</g>
			<g>
				<path class="st9" d="M321.8,145.5c2.8,0,2.8-4.3,0-4.3C319,141.1,319,145.5,321.8,145.5L321.8,145.5z"/>
			</g>
			<g>
				<path class="st9" d="M319.4,124.9c0.1-0.1,0.3-0.3,0.4-0.4c0.8-0.8,0.9-2.3,0-3.1c-0.9-0.8-2.2-0.9-3.1,0
					c-0.1,0.1-0.3,0.3-0.4,0.4c-0.8,0.8-0.9,2.3,0,3.1C317.2,125.7,318.6,125.8,319.4,124.9L319.4,124.9z"/>
			</g>
			<g>
				<path class="st9" d="M342.6,141.1c2.8,0,2.8-4.3,0-4.3C339.8,136.8,339.8,141.1,342.6,141.1L342.6,141.1z"/>
			</g>
			<g>
				<path class="st9" d="M360.8,148.5c2.8,0,2.8-4.3,0-4.3C358,144.2,358,148.5,360.8,148.5L360.8,148.5z"/>
			</g>
			<g>
				<path class="st9" d="M332.6,179.2c2.8,0,2.8-4.3,0-4.3C329.8,174.9,329.8,179.2,332.6,179.2L332.6,179.2z"/>
			</g>
			<g>
				<path class="st9" d="M310.1,188.3c2.8,0,2.8-4.3,0-4.3C307.3,184,307.3,188.3,310.1,188.3L310.1,188.3z"/>
			</g>
			<g>
				<path class="st9" d="M333.1,197c2.8,0,2.8-4.3,0-4.3C330.3,192.7,330.3,197,333.1,197L333.1,197z"/>
			</g>
			<g>
				<path class="st9" d="M350.8,190.9c2.8,0,2.8-4.3,0-4.3C348,186.6,348,190.9,350.8,190.9L350.8,190.9z"/>
			</g>
			<g>
				<path class="st9" d="M292.4,171c2.8,0,2.8-4.3,0-4.3C289.6,166.7,289.6,171,292.4,171L292.4,171z"/>
			</g>
			<g>
				<path class="st9" d="M303.2,130.3c2.8,0,2.8-4.3,0-4.3C300.4,126,300.4,130.3,303.2,130.3L303.2,130.3z"/>
			</g>
			<g>
				<path class="st9" d="M358.6,135.1c2.8,0,2.8-4.3,0-4.3C355.8,130.7,355.8,135.1,358.6,135.1L358.6,135.1z"/>
			</g>
			<g>
				<path class="st9" d="M327.4,118.6c1.7,0,1.7-2.6,0-2.6C325.8,116,325.8,118.6,327.4,118.6L327.4,118.6z"/>
			</g>
			<g>
				<path class="st9" d="M338.3,126c2.8,0,2.8-4.3,0-4.3C335.5,121.6,335.5,126,338.3,126L338.3,126z"/>
			</g>
		</g>
		<g>
			<g>
				<path class="st23" d="M317.6,104.3c0.2,2.2-0.7,3.7-0.5,5.9c1.4-1.5,3.7-2.3,5.1-3.8c0.2,1.3,0.5,2.6,0.7,3.8
					c0.6-0.9,1.2-1.8,1.8-2.7c0.1-0.1,0.2-0.3,0.4-0.3c0.1,0,0.3,0.1,0.4,0.2c0.8,1,1.6,1.9,2.5,2.9c0.8-1.1,1.7-2.3,2.5-3.4
					c0.1-0.1,0.2-0.3,0.4-0.3c0.4-0.1,0.7,0.3,0.9,0.7c0.6,1,1.7,1.8,2.8,1.9c-0.2-0.9-0.4-1.9-0.4-2.9c1,1.1,1.9,2.3,2.9,3.4
					c0.4-4.1,1.6-10.8-0.4-11.6c-6.9-2.8-18.1-0.3-18.5,0.1c-1,1.2-0.9,4.6-0.4,6.2"/>
			</g>
			<g>
				<path class="st22" d="M335.9,99.3c-0.5-0.3-1.1-0.3-1.5-0.1c-0.5,0.2-0.8,0.7-0.9,1.3c0,0.3,0,0.6,0.1,1
					c0.2,0.9,0.3,1.8,0.6,2.6s0.9,1.6,1.7,2c0.1,0,0.2,0.1,0.3,0.1c0.1,0,0.2-0.1,0.2-0.1c0.3-0.3,0.3-0.8,0.3-1.3
					c0-1.1,0-2.1,0-3.2C336.7,100.8,336.6,99.6,335.9,99.3"/>
			</g>
		</g>
		<rect x="327" class="st22" width="0.6" height="96.8"/>
	</g>
	<g>
		<rect x="111.3" y="1.7" class="st22" width="0.6" height="95.1"/>
		<g>
			<path class="st26" d="M120.2,113.9c0-0.1,0-0.1,0-0.2v-4.6c0-4.1-3.4-7.5-7.5-7.5H110c-4.1,0-7.5,3.4-7.5,7.5v4.6
				c0,0.2,0,0.4,0,0.6c-19.7,4.4-34.4,21.7-34.4,42.3c0,24,19.8,43.4,44.3,43.4c24.5,0,44.3-19.4,44.3-43.4
				C156.8,135.2,141,117.5,120.2,113.9z"/>
			<g>
				<polygon class="st9" points="150.3,146.2 149.6,144.1 140.1,147.1 144.3,141.1 143,140.3 137.6,147.9 133.5,149.3 139.3,140.9 
					137.7,139.8 130.6,149.9 130.5,149.9 130.5,150 130.3,150.3 125.8,151.8 132.8,141.7 130.9,140.4 122.5,152.3 122.5,152.3 
					122.5,152.4 122,153 121.5,153.2 119,153.4 119.6,149.7 116,151.6 114.5,147.5 114.5,147.2 114.7,147 114.8,146.9 114.8,146.9 
					123.5,135.2 121.6,133.8 114.5,143.2 114.5,138.5 122,128.6 120.4,127.4 114.5,135.1 114.5,130.8 119.9,123.7 118.7,122.8 
					114.5,128.2 114.5,118.6 112.3,118.6 112.3,128.6 107.9,122.8 106.7,123.7 112.3,131.2 112.3,135.5 106.2,127.4 104.6,128.6 
					112,138.5 112,138.5 112,138.6 112.3,138.9 112.3,143.6 104.9,133.8 103,135.2 111.8,146.9 111.8,146.9 111.8,147 112.1,147.4 
					110.8,151.3 107.8,149.7 108.3,152.9 104.6,152.9 104.4,152.9 104.3,152.7 104.3,152.6 104.2,152.6 95.8,140.7 93.9,142 
					100.7,151.7 96.2,150.2 89,140.1 87.4,141.2 93,149.2 88.8,147.8 83.7,140.6 82.5,141.4 86.4,147 77.3,144.1 76.6,146.2 
					86.1,149.3 79.2,151.7 79.6,153.1 88.5,150.1 92.7,151.4 83,154.7 83.7,156.6 95.4,152.6 95.4,152.6 95.5,152.6 95.9,152.5 
					100.4,153.9 88.8,157.9 89.5,160.1 103.3,155.4 103.3,155.4 103.4,155.4 103.6,155.3 107,158.2 103.9,160.6 107.2,161.5 
					106.3,164.4 92.5,168.7 93.2,170.9 104.4,167.4 101.6,171.3 89.8,174.9 90.4,176.9 99.7,174 97.1,177.5 88.6,180.2 89.1,181.6 
					95.6,179.6 90,187.4 91.8,188.7 97.7,180.6 97.8,187.9 99.3,187.9 99.2,178.5 101.7,175 101.9,185.2 103.9,185.2 103.7,172.8 
					103.7,172.8 103.7,172.7 103.7,172.3 106.5,168.4 106.7,180.7 109,180.7 108.8,166.1 108.8,166.1 108.8,166 108.8,165.8 
					111.6,163.7 113.3,167.8 115.4,164 118.3,166.1 118,180.5 120.4,180.6 120.6,168.8 123.4,172.6 123.2,185 125.2,185 
					125.4,175.3 127.9,178.9 127.8,187.7 129.3,187.8 129.4,180.9 135.1,188.7 136.9,187.4 131,179.3 138,181.4 138.5,180 
					129.5,177.2 126.9,173.7 136.7,176.7 137.3,174.8 125.4,171.1 125.4,171.1 125.4,171.1 125,171 123.5,169 123.5,169 
					122.3,167.2 133.9,170.7 134.6,168.5 120.7,164.2 120.7,164.2 120.6,164.2 120.3,164.1 118.7,161.7 123,161 120.1,157.9 
					123.5,155.1 137.2,159.9 138,157.6 126.8,153.8 131.4,152.3 143.1,156.3 143.7,154.4 134.5,151.3 138.7,149.9 147.1,152.8 
					147.6,151.4 141.1,149.2 				"/>
				<circle class="st9" cx="106" cy="147.4" r="1.2"/>
				<circle class="st9" cx="120.9" cy="147.4" r="1.2"/>
				<circle class="st9" cx="126.1" cy="161.8" r="1.2"/>
				<circle class="st9" cx="101.3" cy="160.6" r="1.2"/>
				<circle class="st9" cx="113.3" cy="169.8" r="1.2"/>
			</g>
			<g>
				<g>
					<path class="st27" d="M101.9,103.9c0.2,2.2-0.7,3.7-0.5,5.9c1.4-1.5,3.7-2.3,5.1-3.8c0.2,1.3,0.5,2.6,0.7,3.8
						c0.6-0.9,1.2-1.8,1.8-2.7c0.1-0.1,0.2-0.3,0.4-0.3c0.1,0,0.3,0.1,0.4,0.2c0.8,1,1.6,1.9,2.5,2.9c0.8-1.1,1.7-2.3,2.5-3.4
						c0.1-0.1,0.2-0.3,0.4-0.3c0.4-0.1,0.7,0.3,0.9,0.7c0.6,1,1.7,1.8,2.8,1.9c-0.2-0.9-0.4-1.9-0.4-2.9c1,1.1,1.9,2.3,2.9,3.4
						c0.4-4.1,1.6-10.8-0.4-11.6c-6.9-2.8-18.1-0.3-18.5,0.1c-1,1.2-0.9,4.6-0.4,6.2"/>
				</g>
				<g>
					<path class="st28" d="M120.3,98.9c-0.5-0.3-1.1-0.3-1.5-0.1c-0.5,0.2-0.8,0.7-0.9,1.3c0,0.3,0,0.6,0.1,1
						c0.2,0.9,0.3,1.8,0.6,2.6c0.3,0.8,0.9,1.6,1.7,2c0.1,0,0.2,0.1,0.3,0.1c0.1,0,0.2-0.1,0.2-0.1c0.3-0.3,0.3-0.8,0.3-1.3
						c0-1.1,0-2.1,0-3.2C121.1,100.3,120.9,99.1,120.3,98.9"/>
				</g>
			</g>
		</g>
	</g>
</g>
</svg>
