<svg width="347" height="347" viewBox="0 0 347 347" xmlns="http://www.w3.org/2000/svg" xmlns:xlink="http://www.w3.org/1999/xlink"><title>Group 3</title><defs><linearGradient x1="50%" y1="0%" x2="50%" y2="95.36%" id="c"><stop stop-color="#4B96F8" offset="0%"/><stop stop-color="#01C3A7" offset="100%"/></linearGradient><circle id="a" cx="123.5" cy="123.5" r="123.5"/><mask id="d" x="-50" y="-50" width="347" height="347"><path fill="#fff" d="M-50-50h347v347H-50z"/><use xlink:href="#a"/></mask><circle id="b" cx="124" cy="124" r="119"/><mask id="e" x="-43" y="-43" width="324" height="324"><path fill="#fff" d="M-38-38h324v324H-38z"/><use xlink:href="#b"/></mask><linearGradient x1="48.946%" y1="58.924%" x2="50%" y2="100%" id="f"><stop stop-color="#172235" offset="0%"/><stop stop-color="#21314D" offset="100%"/></linearGradient><linearGradient x1="50%" y1="0%" x2="50%" y2="97.824%" id="h"><stop stop-color="#4B96F8" offset="0%"/><stop stop-color="#01C3A7" offset="100%"/></linearGradient><radialGradient cy="51.717%" fx="50%" fy="51.717%" r="58.409%" id="i"><stop offset="0%"/><stop offset="100%"/></radialGradient><radialGradient cy="-30.538%" fx="50%" fy="-30.538%" r="163.182%" id="j"><stop stop-color="#01C3A7" offset="0%"/><stop stop-color="#172235" offset="100%"/></radialGradient></defs><g transform="translate(-7 -8)" fill="none" fill-rule="evenodd"><g transform="translate(57 58)"><use fill="#21314D" xlink:href="#a"/><use stroke="url(#c)" mask="url(#d)" stroke-width="100" xlink:href="#a"/><circle fill="#21314D" cx="123.5" cy="123.5" r="123.5"/><mask id="g" fill="#fff"><use xlink:href="#b"/></mask><use fill="#21314D" xlink:href="#b"/><use stroke="#172235" mask="url(#e)" stroke-width="86" xlink:href="#b"/><rect fill="url(#f)" mask="url(#g)" x="-73" y="-41" width="383" height="165" rx="4"/><g mask="url(#g)"><path d="M243.884 63.527a147.23 147.23 0 0 0-7.082-2.234c.4-1.636.768-3.25 1.094-4.837 5.361-26.058 1.856-47.05-10.113-53.962-11.477-6.627-30.247.283-49.203 16.802a147.225 147.225 0 0 0-5.478 5.033 134.015 134.015 0 0 0-3.646-3.37C149.59 3.294 129.676-4.15 117.72 2.781c-11.466 6.647-14.862 26.382-10.036 51.077.466 2.385 1.01 4.82 1.626 7.297-2.818.802-5.539 1.656-8.142 2.564C77.875 71.852 63 84.596 63 97.814c0 13.653 15.969 27.347 40.229 35.65 1.914.655 3.9 1.275 5.948 1.863a144.277 144.277 0 0 0-1.728 7.863c-4.6 24.267-1.008 43.535 10.428 50.14 11.812 6.82 31.635-.19 50.938-17.086a125.158 125.158 0 0 0 4.59-4.237 144.5 144.5 0 0 0 5.948 5.434c18.697 16.11 37.164 22.617 48.589 15.994 11.8-6.84 15.635-27.54 10.656-52.723-.38-1.924-.823-3.888-1.32-5.888a131.5 131.5 0 0 0 4.092-1.28c25.22-8.368 41.63-21.895 41.63-35.73 0-13.266-15.355-26.096-39.116-34.287z" fill="url(#h)" transform="translate(-49 27)"/><path d="M237.848 124.08a123.79 123.79 0 0 1-3.691 1.156c-2.782-8.815-6.536-18.19-11.13-27.874 4.384-9.454 7.993-18.708 10.696-27.467 2.249.652 4.43 1.339 6.534 2.064C260.594 78.968 273 89.33 273 97.316c0 8.506-13.398 19.547-35.152 26.763zm-9.027 17.906c2.2 11.122 2.514 21.178 1.057 29.039-1.309 7.063-3.941 11.773-7.196 13.659-6.926 4.014-21.738-1.203-37.712-14.965a134.605 134.605 0 0 1-5.526-5.045c6.193-6.78 12.382-14.663 18.422-23.417 10.625-.944 20.663-2.487 29.766-4.593.448 1.81.846 3.586 1.19 5.322zM137.54 183.99c-6.767 2.393-12.157 2.461-15.415.58-6.932-4.002-9.814-19.454-5.883-40.18a135 135 0 0 1 1.604-7.305c9.003 1.993 18.967 3.427 29.617 4.291 6.081 8.567 12.45 16.44 18.867 23.335a115.66 115.66 0 0 1-4.188 3.86c-8.527 7.463-17.072 12.757-24.602 15.42zm-31.703-59.963c-10.716-3.667-19.567-8.432-25.633-13.633-5.45-4.673-8.203-9.313-8.203-13.078 0-8.012 11.931-18.23 31.83-25.176a135.357 135.357 0 0 1 7.565-2.384c2.75 8.956 6.358 18.32 10.712 27.789-4.41 9.609-8.069 19.122-10.846 28.183a115.562 115.562 0 0 1-5.425-1.7zm10.627-72.418c-4.13-21.132-1.387-37.073 5.516-41.073 7.352-4.262 23.61 1.814 40.747 17.047a123.95 123.95 0 0 1 3.298 3.047c-6.386 6.864-12.695 14.68-18.723 23.195-10.336.959-20.23 2.5-29.327 4.563a137.94 137.94 0 0 1-1.51-6.779zm94.802 23.436a298.986 298.986 0 0 0-6.683-11.004c7.012.888 13.73 2.066 20.04 3.507-1.894 6.078-4.255 12.432-7.034 18.946a327.698 327.698 0 0 0-6.323-11.45zm-38.66-37.698c4.33 4.697 8.667 9.941 12.933 15.631a276.163 276.163 0 0 0-25.976-.006c4.27-5.637 8.645-10.874 13.043-15.625zM133.697 75.11a277.85 277.85 0 0 0-6.204 11.377c-2.734-6.491-5.073-12.875-6.983-19.038 6.27-1.405 12.957-2.554 19.925-3.424a276.398 276.398 0 0 0-6.738 11.084zm6.938 56.168c-7.199-.804-13.986-1.894-20.255-3.26 1.941-6.273 4.332-12.793 7.124-19.424a276.144 276.144 0 0 0 6.23 11.384h.001a277.835 277.835 0 0 0 6.9 11.3zm32.23 26.67c-4.45-4.807-8.889-10.124-13.224-15.843 4.209.165 8.499.25 12.86.25 4.479 0 8.907-.102 13.266-.296-4.28 5.822-8.601 11.147-12.902 15.888zm44.812-49.692c2.938 6.703 5.414 13.188 7.38 19.355-6.372 1.455-13.252 2.627-20.501 3.498a328.748 328.748 0 0 0 6.747-11.195 298.684 298.684 0 0 0 6.374-11.658zm-14.507 6.962a308.226 308.226 0 0 1-10.543 17.03c-6.522.467-13.26.707-20.127.707a307.4 307.4 0 0 1-19.898-.629 266.652 266.652 0 0 1-10.743-17.057h.001a264.31 264.31 0 0 1-9.377-17.727 266.777 266.777 0 0 1 9.349-17.738l-.001.001a264.175 264.175 0 0 1 10.657-16.984 265.74 265.74 0 0 1 20.012-.752c6.804 0 13.515.26 20.05.759a283.12 283.12 0 0 1 10.589 16.927 308.223 308.223 0 0 1 9.475 17.653 283.278 283.278 0 0 1-9.444 17.81zm19.368-104.962c7.36 4.25 10.222 21.385 5.598 43.855a124.296 124.296 0 0 1-.988 4.374c-9.118-2.106-19.02-3.673-29.386-4.647-6.039-8.61-12.297-16.436-18.579-23.212a138.095 138.095 0 0 1 5.055-4.641c16.226-14.136 31.39-19.718 38.3-15.729z" fill="url(#i)" opacity=".459" transform="translate(-49 27)"/><path fill="#172235" d="M107.404 150h33.13L297 256.707-49 257z"/></g></g><circle transform="scale(-1 1) rotate(-30 0 854.748)" cx="180.63" cy="180.63" r="131.986"/><path d="M168.187 211.63L74 293.57V295l17.193 9.529 85.966-92.9h8.337l85.31 92.9L288 294.994v-1.43l-94.187-81.935h-25.626z" fill="url(#j)"/><path d="M193.373 212.422s5.627-1.48 5.627-5.975v-42.74c0-.942-.669-1.707-1.493-1.707h-33.013c-.824 0-1.494.765-1.494 1.706v42.741c0 3.784 5.758 6.11 5.758 6.11l3.183 3.383L190 216l.19-.204 3.184-3.374zm-2.625-4.277c-1.89 0-3.426-1.754-3.426-3.928 0-2.167 1.534-3.924 3.426-3.924 1.893 0 3.43 1.756 3.43 3.924-.002 2.174-1.537 3.928-3.43 3.928zm-14.89-42.863h10.283v4.053h-10.283v-4.053zm-7.713 7.85h25.71v17.671h-25.71v-17.67zm3.747 35.013c-1.893 0-3.428-1.754-3.428-3.928 0-2.167 1.535-3.924 3.428-3.924 1.895 0 3.43 1.756 3.43 3.924.001 2.174-1.535 3.928-3.43 3.928z" fill="#FFF"/></g></svg>