<?xml version="1.0" encoding="UTF-8"?>
<svg width="152px" height="83px" viewBox="0 0 152 83" version="1.1" xmlns="http://www.w3.org/2000/svg" xmlns:xlink="http://www.w3.org/1999/xlink">
    <!-- Generator: Sketch 41 (35326) - http://www.bohemiancoding.com/sketch -->
    <title>Group 3</title>
    <desc>Created with Sketch.</desc>
    <defs>
        <path d="M132.08994,82.5230196 L168,82.5230196 L168,34.2190855 L91.5768102,34.2190855 C86.1049197,14.4832845 68.0580685,0 46.638806,0 C20.8809047,0 0,20.9449334 0,46.7818182 C0,61.0949302 6.40821618,73.9067336 16.5037784,82.4880151 L132.08994,82.4880151 L132.08994,82.5230196 Z" id="path-1"></path>
        <path d="M165.552668,20.9304784 C168.659085,24.082415 172.31442,34.716186 158.803313,34.716186 C130.436412,34.716186 0.704033939,34.716186 0.704033939,34.716186 C0.315206731,34.716186 0,34.3946776 0,34.0227173 L0,5.25379272 C0,2.35220875 2.34684923,0.000851858123 5.25429185,0.00183984499 C5.25429185,0.00183984499 86.429199,0.0326126961 124.092775,1.01831126e-05 C142.054578,-0.0155379935 162.446251,17.7785417 165.552668,20.9304784 Z" id="path-3"></path>
        <linearGradient x1="159.432481%" y1="28.98148%" x2="26.0683165%" y2="28.98148%" id="linearGradient-5">
            <stop stop-color="#1ECDC0" offset="0%"></stop>
            <stop stop-color="#01C3A7" offset="100%"></stop>
        </linearGradient>
        <rect id="path-6" x="0" y="0" width="23.1890489" height="9.02609698" rx="4.51304849"></rect>
        <rect id="path-8" x="0" y="0" width="23.1890489" height="9.02609698" rx="4.51304849"></rect>
        <rect id="path-10" x="0" y="0" width="23.1890489" height="9.02609698" rx="4.51304849"></rect>
        <rect id="path-12" x="0.212310709" y="0.00708493385" width="8.03391068" height="17.3580879" rx="2.97499995"></rect>
        <mask id="mask-13" maskContentUnits="userSpaceOnUse" maskUnits="objectBoundingBox" x="-1" y="-1" width="10.0339107" height="19.3580879">
            <rect x="-0.787689291" y="-0.992915066" width="10.0339107" height="19.3580879" fill="white"></rect>
            <use xlink:href="#path-12" fill="black"></use>
        </mask>
        <path d="M165.552668,20.9304784 C168.659085,24.082415 172.31442,34.716186 158.803313,34.716186 C130.436412,34.716186 0.704033939,34.716186 0.704033939,34.716186 C0.315206731,34.716186 0,34.3946776 0,34.0227173 L0,5.25379272 C0,2.35220875 2.34684923,0.000851858123 5.25429185,0.00183984499 C5.25429185,0.00183984499 86.429199,0.0326126961 124.092775,1.01831126e-05 C142.054578,-0.0155379935 162.446251,17.7785417 165.552668,20.9304784 Z" id="path-14"></path>
        <mask id="mask-15" maskContentUnits="userSpaceOnUse" maskUnits="objectBoundingBox" x="0" y="0" width="168.465504" height="34.716186" fill="white">
            <use xlink:href="#path-14"></use>
        </mask>
    </defs>
    <g id="Symbols" stroke="none" stroke-width="1" fill="none" fill-rule="evenodd">
        <g id="Group-6">
            <g id="Group-3">
                <g>
                    <mask id="mask-2" fill="white">
                        <use xlink:href="#path-1"></use>
                    </mask>
                    <g id="Combined-Shape"></g>
                    <path d="M151,82 L-24,82" id="Line" stroke="#808892" stroke-linecap="round" mask="url(#mask-2)"></path>
                    <path d="M70.1299097,93.5636364 C83.9755385,84.8590374 93.2776119,68.6951064 93.2776119,50.192992 C93.2776119,22.472168 72.3967073,0 46.638806,0 C20.8809047,0 0,22.472168 0,50.192992 C0,68.6951064 9.30207346,84.8590374 23.1477022,93.5636364 L70.1299107,93.5636355 Z" id="Combined-Shape" fill-opacity="0.19287817" fill="#20406B" opacity="0.400000006" mask="url(#mask-2)"></path>
                    <ellipse id="Oval" fill="#21314D" opacity="0.23332556" mask="url(#mask-2)" cx="18.5552239" cy="47.7878788" rx="47.641791" ry="47.7878788"></ellipse>
                    <g id="Group-2" mask="url(#mask-2)">
                        <g transform="translate(-36.020896, 45.266667)" id="Group-7">
                            <g>
                                <g id="train">
                                    <g id="Group-4" transform="translate(5.516418, 28.169697)" fill="#21314D">
                                        <path d="M137.683495,8.55151515 C139.915402,8.55151515 141.724719,6.72759622 141.724719,4.47767819 C141.724719,2.22776016 139.915402,0.403841229 137.683495,0.403841229 C135.451588,0.403841229 133.64227,2.22776016 133.64227,4.47767819 C133.64227,6.72759622 135.451588,8.55151515 137.683495,8.55151515 Z M127.14117,8.55151515 C129.373077,8.55151515 131.182395,6.72759622 131.182395,4.47767819 C131.182395,2.22776016 129.373077,0.403841229 127.14117,0.403841229 C124.909263,0.403841229 123.099946,2.22776016 123.099946,4.47767819 C123.099946,6.72759622 124.909263,8.55151515 127.14117,8.55151515 Z M116.598845,8.55151515 C118.830752,8.55151515 120.64007,6.72759622 120.64007,4.47767819 C120.64007,2.22776016 118.830752,0.403841229 116.598845,0.403841229 C114.366939,0.403841229 112.557621,2.22776016 112.557621,4.47767819 C112.557621,6.72759622 114.366939,8.55151515 116.598845,8.55151515 Z M25.2320296,8.55151515 C27.4639363,8.55151515 29.2732542,6.72759622 29.2732542,4.47767819 C29.2732542,2.22776016 27.4639363,0.403841229 25.2320296,0.403841229 C23.000123,0.403841229 21.1908051,2.22776016 21.1908051,4.47767819 C21.1908051,6.72759622 23.000123,8.55151515 25.2320296,8.55151515 Z M14.6897048,8.55151515 C16.9216114,8.55151515 18.7309293,6.72759622 18.7309293,4.47767819 C18.7309293,2.22776016 16.9216114,0.403841229 14.6897048,0.403841229 C12.4577981,0.403841229 10.6484802,2.22776016 10.6484802,4.47767819 C10.6484802,6.72759622 12.4577981,8.55151515 14.6897048,8.55151515 Z M4.14737989,8.55151515 C6.37928657,8.55151515 8.18860442,6.72759622 8.18860442,4.47767819 C8.18860442,2.22776016 6.37928657,0.403841229 4.14737989,0.403841229 C1.91547321,0.403841229 0.106155355,2.22776016 0.106155355,4.47767819 C0.106155355,6.72759622 1.91547321,8.55151515 4.14737989,8.55151515 Z" id="Combined-Shape"></path>
                                    </g>
                                    <mask id="mask-4" fill="white">
                                        <use xlink:href="#path-3"></use>
                                    </mask>
                                    <use id="Combined-Shape" fill="#EEFDFB" xlink:href="#path-3"></use>
                                    <polygon id="Rectangle-3" fill="url(#linearGradient-5)" mask="url(#mask-4)" points="-3.86551912 24.9743918 156.035562 24.9743918 172.191306 34.5319676 172.191306 40.3841229 -3.86551912 40.3841229"></polygon>
                                    <rect id="Rectangle-3" fill-opacity="0.25" fill="#21314D" mask="url(#mask-4)" x="-3.86551912" y="30.6990184" width="176.056825" height="8.67904396"></rect>
                                    <g id="Group-3" mask="url(#mask-4)">
                                        <g transform="translate(67.338174, 10.036841)">
                                            <mask id="mask-7" fill="white">
                                                <use xlink:href="#path-6"></use>
                                            </mask>
                                            <use id="Rectangle-2" stroke="none" fill="#21314D" fill-rule="evenodd" xlink:href="#path-6"></use>
                                            <path d="M-1.26756595,0.486951512 L7.55805552,9.60096419" id="Line" stroke="#D1E2FF" stroke-width="1.92499997" stroke-linecap="round" fill="none" opacity="0.200000018" mask="url(#mask-7)"></path>
                                            <path d="M11.218845,-0.144806059 L20.0444665,8.96920661" id="Line" stroke="#D1E2FF" stroke-width="1.92499997" stroke-linecap="round" fill="none" opacity="0.200000018" mask="url(#mask-7)"></path>
                                            <path d="M11.3100304,-5.37625818 L20.1356519,3.73775449" id="Line" stroke="#D1E2FF" stroke-width="1.92499997" stroke-linecap="round" fill="none" opacity="0.200000018" mask="url(#mask-7)"></path>
                                        </g>
                                    </g>
                                    <g id="Group-3" mask="url(#mask-4)">
                                        <g transform="translate(95.338174, 10.036841)">
                                            <mask id="mask-9" fill="white">
                                                <use xlink:href="#path-8"></use>
                                            </mask>
                                            <use id="Rectangle-2" stroke="none" fill="#21314D" fill-rule="evenodd" xlink:href="#path-8"></use>
                                            <path d="M-1.26756595,0.486951512 L7.55805552,9.60096419" id="Line" stroke="#D1E2FF" stroke-width="1.92499997" stroke-linecap="round" fill="none" opacity="0.200000018" mask="url(#mask-9)"></path>
                                            <path d="M11.218845,-0.144806059 L20.0444665,8.96920661" id="Line" stroke="#D1E2FF" stroke-width="1.92499997" stroke-linecap="round" fill="none" opacity="0.200000018" mask="url(#mask-9)"></path>
                                            <path d="M11.3100304,-5.37625818 L20.1356519,3.73775449" id="Line" stroke="#D1E2FF" stroke-width="1.92499997" stroke-linecap="round" fill="none" opacity="0.200000018" mask="url(#mask-9)"></path>
                                        </g>
                                    </g>
                                    <g id="Group-3" mask="url(#mask-4)">
                                        <g transform="translate(39.338174, 10.036841)">
                                            <mask id="mask-11" fill="white">
                                                <use xlink:href="#path-10"></use>
                                            </mask>
                                            <use id="Rectangle-2" stroke="none" fill="#21314D" fill-rule="evenodd" xlink:href="#path-10"></use>
                                            <path d="M-1.26756595,0.486951512 L7.55805552,9.60096419" id="Line" stroke="#D1E2FF" stroke-width="1.92499997" stroke-linecap="round" fill="none" opacity="0.200000018" mask="url(#mask-11)"></path>
                                            <path d="M11.218845,-0.144806059 L20.0444665,8.96920661" id="Line" stroke="#D1E2FF" stroke-width="1.92499997" stroke-linecap="round" fill="none" opacity="0.200000018" mask="url(#mask-11)"></path>
                                            <path d="M11.3100304,-5.37625818 L20.1356519,3.73775449" id="Line" stroke="#D1E2FF" stroke-width="1.92499997" stroke-linecap="round" fill="none" opacity="0.200000018" mask="url(#mask-11)"></path>
                                        </g>
                                    </g>
                                    <path d="M26.3283582,28.6727273 L92.7780095,28.6727273" id="Line" stroke="#0B8E7A" stroke-linecap="round" mask="url(#mask-4)"></path>
                                    <path d="M97.7868662,28.6727273 L105.954681,28.6727273" id="Line" stroke="#0B8E7A" stroke-linecap="round" mask="url(#mask-4)"></path>
                                    <path d="M26.3283582,5.53333333 L120.614289,5.53333333" id="Line" stroke="#A4BFBC" stroke-linecap="round" mask="url(#mask-4)"></path>
                                    <path d="M-3.67164179,3.53333333 L90.6142888,3.53333333" id="Line" stroke="#FFFFFF" stroke-linecap="round" mask="url(#mask-4)"></path>
                                    <path d="M141.319614,21.1272727 L149.960833,21.1272727" id="Line" stroke="#A4BFBC" stroke-linecap="round" mask="url(#mask-4)"></path>
                                    <g id="Group-5" mask="url(#mask-4)">
                                        <g transform="translate(127.196078, 9.557576)" id="Rectangle-2-Copy">
                                            <use stroke="#21314D" mask="url(#mask-13)" stroke-width="2" fill="none" xlink:href="#path-12"></use>
                                            <rect stroke="none" fill="#21314D" fill-rule="evenodd" x="1.96936485" y="2.13256509" width="4.51844788" height="5.13657704" rx="0.874999985"></rect>
                                        </g>
                                    </g>
                                    <path d="M144.753947,10.6521467 C144.380875,10.3450124 144.475852,10.0960307 144.95063,10.0960307 L171.319117,10.0960307 C171.800814,10.0960307 172.191306,10.4915039 172.191306,10.975986 L172.191306,17.8951194 C172.191306,18.3811053 171.791308,18.7750747 171.31998,18.7750747 L155.492091,18.7750747 C155.010871,18.7750747 154.316623,18.5246877 153.945258,18.2189587 L144.753947,10.6521467 Z" id="Rectangle-2" fill="#21314D" mask="url(#mask-4)"></path>
                                    <path d="M-14.161194,-5.03030303 L56.0477612,-5.03030303 C56.0477612,-5.03030303 55.8253815,29.1132779 91.2797316,42.2545455 L-14.161194,42.2545455 L-14.161194,-5.03030303 Z" id="shadow" fill="#000000" opacity="0.0872201493" mask="url(#mask-4)" transform="translate(38.559269, 18.612121) scale(1, -1) translate(-38.559269, -18.612121) "></path>
                                </g>
                                <use id="Combined-Shape" stroke="#21314D" mask="url(#mask-15)" stroke-width="3.5" xlink:href="#path-14"></use>
                            </g>
                        </g>
                    </g>
                </g>
            </g>
        </g>
    </g>
</svg>